<?xml version="1.0" encoding="utf-8"?>
<svg xmlns="http://www.w3.org/2000/svg" xmlns:xlink="http://www.w3.org/1999/xlink">
  <symbol fill="currentColor" class="bi bi-calendar2-check" viewBox="0 0 16 16" id="logo" xmlns="http://www.w3.org/2000/svg">
    <path fill-rule="evenodd" d="M3.5 0a.5.5 0 0 1 .5.5V1h8V.5a.5.5 0 0 1 1 0V1h1a2 2 0 0 1 2 2v11a2 2 0 0 1-2 2H2a2 2 0 0 1-2-2V3a2 2 0 0 1 2-2h1V.5a.5.5 0 0 1 .5-.5zM2 2a1 1 0 0 0-1 1v11a1 1 0 0 0 1 1h12a1 1 0 0 0 1-1V3a1 1 0 0 0-1-1H2z"/>
    <path d="M2.5 4a.5.5 0 0 1 .5-.5h10a.5.5 0 0 1 .5.5v1a.5.5 0 0 1-.5.5H3a.5.5 0 0 1-.5-.5V4z"/>
    <path fill-rule="evenodd" d="M10.854 8.146a.5.5 0 0 1 0 .708l-3 3a.5.5 0 0 1-.708 0l-1.5-1.5a.5.5 0 0 1 .708-.708L7.5 10.793l2.646-2.647a.5.5 0 0 1 .708 0z"/>
  </symbol>
  <symbol fill="currentColor" class="bi bi-house-door" viewBox="0 0 16 16" id="home" xmlns="http://www.w3.org/2000/svg">
    <path d="M8.354 1.146a.5.5 0 0 0-.708 0l-6 6A.5.5 0 0 0 1.5 7.5v7a.5.5 0 0 0 .5.5h4.5a.5.5 0 0 0 .5-.5v-4h2v4a.5.5 0 0 0 .5.5H14a.5.5 0 0 0 .5-.5v-7a.5.5 0 0 0-.146-.354L13 5.793V2.5a.5.5 0 0 0-.5-.5h-1a.5.5 0 0 0-.5.5v1.293L8.354 1.146zM2.5 14V7.707l5.5-5.5 5.5 5.5V14H10v-4a.5.5 0 0 0-.5-.5h-3a.5.5 0 0 0-.5.5v4H2.5z"/>
  </symbol>
  <symbol fill="currentColor" class="bi bi-stickies" viewBox="0 0 16 16" id="tickets" xmlns="http://www.w3.org/2000/svg">
    <path d="M1.5 0A1.5 1.5 0 0 0 0 1.5V13a1 1 0 0 0 1 1V1.5a.5.5 0 0 1 .5-.5H14a1 1 0 0 0-1-1H1.5z"/>
    <path d="M3.5 2A1.5 1.5 0 0 0 2 3.5v11A1.5 1.5 0 0 0 3.5 16h6.086a1.5 1.5 0 0 0 1.06-.44l4.915-4.914A1.5 1.5 0 0 0 16 9.586V3.5A1.5 1.5 0 0 0 14.5 2h-11zM3 3.5a.5.5 0 0 1 .5-.5h11a.5.5 0 0 1 .5.5V9h-4.5A1.5 1.5 0 0 0 9 10.5V15H3.5a.5.5 0 0 1-.5-.5v-11zm7 11.293V10.5a.5.5 0 0 1 .5-.5h4.293L10 14.793z"/>
  </symbol>
  <symbol fill="currentColor" class="bi bi-people" viewBox="0 0 16 16" id="agents" xmlns="http://www.w3.org/2000/svg">
    <path d="M15 14s1 0 1-1-1-4-5-4-5 3-5 4 1 1 1 1h8zm-7.978-1A.261.261 0 0 1 7 12.996c.001-.264.167-1.03.76-1.72C8.312 10.629 9.282 10 11 10c1.717 0 2.687.63 3.24 1.276.593.69.758 1.457.76 1.72l-.008.002a.274.274 0 0 1-.014.002H7.022zM11 7a2 2 0 1 0 0-4 2 2 0 0 0 0 4zm3-2a3 3 0 1 1-6 0 3 3 0 0 1 6 0zM6.936 9.28a5.88 5.88 0 0 0-1.23-.247A7.35 7.35 0 0 0 5 9c-4 0-5 3-5 4 0 .667.333 1 1 1h4.216A2.238 2.238 0 0 1 5 13c0-1.01.377-2.042 1.09-2.904.243-.294.526-.569.846-.816zM4.92 10A5.493 5.493 0 0 0 4 13H1c0-.26.164-1.03.76-1.724.545-.636 1.492-1.256 3.16-1.275zM1.5 5.5a3 3 0 1 1 6 0 3 3 0 0 1-6 0zm3-2a2 2 0 1 0 0 4 2 2 0 0 0 0-4z"/>
  </symbol>
  <symbol fill="currentColor" class="bi bi-clock-history" viewBox="0 0 16 16" id="logs" xmlns="http://www.w3.org/2000/svg">
    <path d="M8.515 1.019A7 7 0 0 0 8 1V0a8 8 0 0 1 .589.022l-.074.997zm2.004.45a7.003 7.003 0 0 0-.985-.299l.219-.976c.383.086.76.2 1.126.342l-.36.933zm1.37.71a7.01 7.01 0 0 0-.439-.27l.493-.87a8.025 8.025 0 0 1 .979.654l-.615.789a6.996 6.996 0 0 0-.418-.302zm1.834 1.79a6.99 6.99 0 0 0-.653-.796l.724-.69c.27.285.52.59.747.91l-.818.576zm.744 1.352a7.08 7.08 0 0 0-.214-.468l.893-.45a7.976 7.976 0 0 1 .45 1.088l-.95.313a7.023 7.023 0 0 0-.179-.483zm.53 2.507a6.991 6.991 0 0 0-.1-1.025l.985-.17c.067.386.106.778.116 1.17l-1 .025zm-.131 1.538c.033-.17.06-.339.081-.51l.993.123a7.957 7.957 0 0 1-.23 1.155l-.964-.267c.046-.165.086-.332.12-.501zm-.952 2.379c.184-.29.346-.594.486-.908l.914.405c-.16.36-.345.706-.555 1.038l-.845-.535zm-.964 1.205c.122-.122.239-.248.35-.378l.758.653a8.073 8.073 0 0 1-.401.432l-.707-.707z"/>
    <path d="M8 1a7 7 0 1 0 4.95 11.95l.707.707A8.001 8.001 0 1 1 8 0v1z"/>
    <path d="M7.5 3a.5.5 0 0 1 .5.5v5.21l3.248 1.856a.5.5 0 0 1-.496.868l-3.5-2A.5.5 0 0 1 7 9V3.5a.5.5 0 0 1 .5-.5z"/>
  </symbol>
  <symbol fill="currentColor" class="bi trash" viewBox="0 0 16 16" id="delete" xmlns="http://www.w3.org/2000/svg">
    <path d="M5.5 5.5A.5.5 0 0 1 6 6v6a.5.5 0 0 1-1 0V6a.5.5 0 0 1 .5-.5zm2.5 0a.5.5 0 0 1 .5.5v6a.5.5 0 0 1-1 0V6a.5.5 0 0 1 .5-.5zm3 .5a.5.5 0 0 0-1 0v6a.5.5 0 0 0 1 0V6z"/>
    <path fill-rule="evenodd" d="M14.5 3a1 1 0 0 1-1 1H13v9a2 2 0 0 1-2 2H5a2 2 0 0 1-2-2V4h-.5a1 1 0 0 1-1-1V2a1 1 0 0 1 1-1H6a1 1 0 0 1 1-1h2a1 1 0 0 1 1 1h3.5a1 1 0 0 1 1 1v1zM4.118 4L4 4.059V13a1 1 0 0 0 1 1h6a1 1 0 0 0 1-1V4.059L11.882 4H4.118zM2.5 3V2h11v1h-11z"/>
  </symbol>
  <symbol fill="currentColor" class="bi arrow-repeat" viewBox="0 0 16 16" id="run-now" xmlns="http://www.w3.org/2000/svg">
    <path d="M11.534 7h3.932a.25.25 0 0 1 .192.41l-1.966 2.36a.25.25 0 0 1-.384 0l-1.966-2.36a.25.25 0 0 1 .192-.41zm-11 2h3.932a.25.25 0 0 0 .192-.41L2.692 6.23a.25.25 0 0 0-.384 0L.342 8.59A.25.25 0 0 0 .534 9z"/>
    <path fill-rule="evenodd" d="M8 3c-1.552 0-2.94.707-3.857 1.818a.5.5 0 1 1-.771-.636A6.002 6.002 0 0 1 13.917 7H12.9A5.002 5.002 0 0 0 8 3zM3.1 9a5.002 5.002 0 0 0 8.757 2.182.5.5 0 1 1 .771.636A6.002 6.002 0 0 1 2.083 9H3.1z"/>
  </symbol>
  <symbol fill="currentColor" class="bi zendesk" viewBox="0 0 26 26" id="zendesk" xmlns="http://www.w3.org/2000/svg">
    <path fill="currentColor" d="M14.3 5.2L5.4 2.7l-2.5 8.9-2.5 8.9 8.9 2.4 2.5-8.8z"/>
    <path d="M14.223 14.131l8.853-2.503 2.503 8.853-8.853 2.503z"/>
  </symbol>
  <symbol fill="currentColor" class="bi edit" viewBox="0 0 16 16" id="edit" xmlns="http://www.w3.org/2000/svg">
    <path d="M15.502 1.94a.5.5 0 0 1 0 .706L14.459 3.69l-2-2L13.502.646a.5.5 0 0 1 .707 0l1.293 1.293zm-1.75 2.456l-2-2L4.939 9.21a.5.5 0 0 0-.121.196l-.805 2.414a.25.25 0 0 0 .316.316l2.414-.805a.5.5 0 0 0 .196-.12l6.813-6.814z"/>
    <path fill-rule="evenodd" d="M1 13.5A1.5 1.5 0 0 0 2.5 15h11a1.5 1.5 0 0 0 1.5-1.5v-6a.5.5 0 0 0-1 0v6a.5.5 0 0 1-.5.5h-11a.5.5 0 0 1-.5-.5v-11a.5.5 0 0 1 .5-.5H9a.5.5 0 0 0 0-1H2.5A1.5 1.5 0 0 0 1 2.5v11z"/>
  </symbol>
  <symbol fill="currentColor" class="bi agentview" viewBox="0 0 16 16" id="agentview" xmlns="http://www.w3.org/2000/svg">
    <path d="M3 0h10a2 2 0 0 1 2 2v3a2 2 0 0 1-2 2H3a2 2 0 0 1-2-2V2a2 2 0 0 1 2-2zm0 1a1 1 0 0 0-1 1v3a1 1 0 0 0 1 1h10a1 1 0 0 0 1-1V2a1 1 0 0 0-1-1H3zm0 8h10a2 2 0 0 1 2 2v3a2 2 0 0 1-2 2H3a2 2 0 0 1-2-2v-3a2 2 0 0 1 2-2zm0 1a1 1 0 0 0-1 1v3a1 1 0 0 0 1 1h10a1 1 0 0 0 1-1v-3a1 1 0 0 0-1-1H3z"/>
  </symbol>
</svg>
